<svg xmlns="http://www.w3.org/2000/svg" viewBox="0 0 32 40" x="0px" y="0px"><title>pencil</title><g data-name="Layer 106"><path d="M29.0356,2.9648a5.0064,5.0064,0,0,0-7.0712,0L4.05,20.88a.9989.9989,0,0,0-.2539.43L1.5015,29.2607A1,1,0,0,0,2.74,30.499l7.9512-2.2949a1.0039,1.0039,0,0,0,.43-.2539l17.915-17.915a4.9994,4.9994,0,0,0,0-7.07ZM10.4134,25.8289,6.1711,21.5862,20.3879,7.3694,24.63,11.6122ZM5.2479,23.4911,8.5084,26.752,3.9253,28.0752Zm22.3737-14.87-1.5772,1.5771L21.8019,5.9554l1.5765-1.5765a3,3,0,0,1,4.2432,4.2422Z"/></g><text x="0" y="47" fill="#000000" font-size="5px" font-weight="bold" font-family="'Helvetica Neue', Helvetica, Arial-Unicode, Arial, Sans-serif">Created by agus raharjo</text><text x="0" y="52" fill="#000000" font-size="5px" font-weight="bold" font-family="'Helvetica Neue', Helvetica, Arial-Unicode, Arial, Sans-serif">from the Noun Project</text></svg>